<?xml version="1.0" encoding="utf-8"?>
<!-- Generator: Adobe Illustrator 17.0.0, SVG Export Plug-In . SVG Version: 6.00 Build 0)  -->
<!DOCTYPE svg PUBLIC "-//W3C//DTD SVG 1.1//EN" "http://www.w3.org/Graphics/SVG/1.1/DTD/svg11.dtd">
<svg version="1.1" id="Слой_1" xmlns="http://www.w3.org/2000/svg" xmlns:xlink="http://www.w3.org/1999/xlink" x="0px" y="0px"
	 width="12.76px" height="12.76px" viewBox="0 0 12.76 12.76" enable-background="new 0 0 12.76 12.76" xml:space="preserve">
<path id="times-circle.svg_3_" fill="#FFFFFF" d="M3.306,4.557c0,0.14,0.051,0.261,0.153,0.363l1.46,1.46l-1.46,1.46
	C3.357,7.943,3.306,8.064,3.306,8.203c0,0.145,0.051,0.269,0.153,0.371l0.726,0.726c0.102,0.102,0.226,0.153,0.371,0.153
	c0.14,0,0.261-0.051,0.363-0.153l1.46-1.46l1.46,1.46c0.102,0.102,0.223,0.153,0.363,0.153c0.145,0,0.269-0.051,0.371-0.153
	l0.726-0.726c0.102-0.102,0.153-0.226,0.153-0.371c0-0.14-0.051-0.261-0.153-0.363L7.84,6.38l1.46-1.46
	c0.102-0.102,0.153-0.223,0.153-0.363c0-0.145-0.051-0.269-0.153-0.371L8.575,3.459C8.472,3.357,8.349,3.306,8.203,3.306
	c-0.14,0-0.261,0.051-0.363,0.153L6.38,4.92l-1.46-1.46C4.817,3.357,4.696,3.306,4.557,3.306c-0.145,0-0.269,0.051-0.371,0.153
	L3.459,4.185C3.357,4.288,3.306,4.411,3.306,4.557z M0.184,6.38c0-1.124,0.277-2.161,0.831-3.11S2.32,1.569,3.27,1.015
	s1.986-0.831,3.11-0.831s2.161,0.277,3.11,0.831c0.949,0.554,1.701,1.306,2.255,2.255c0.554,0.949,0.831,1.986,0.831,3.11
	s-0.277,2.161-0.831,3.11c-0.554,0.949-1.306,1.701-2.255,2.255c-0.949,0.554-1.986,0.831-3.11,0.831s-2.161-0.277-3.11-0.831
	C2.32,11.191,1.569,10.44,1.015,9.49C0.461,8.541,0.184,7.504,0.184,6.38z"/>
</svg>
